<svg width="132" height="41" viewBox="0 0 132 41" fill="none" xmlns="http://www.w3.org/2000/svg">
<path d="M0 7.7263C0 3.45918 3.45918 0 7.7263 0H32.9034C37.1705 0 40.6297 3.45918 40.6297 7.7263V32.9034C40.6297 37.1705 37.1705 40.6297 32.9034 40.6297H7.7263C3.45918 40.6297 0 37.1705 0 32.9034V7.7263Z" fill="url(#paint0_linear_2_175)"/>
<path d="M12.0221 6.0922C12.3686 6.18463 12.6901 6.45887 12.8685 6.814L14.0612 9.18869L25.4701 12.2311C27.0709 12.658 28.3686 14.3473 28.3688 16.0041V27.3654C28.3686 29.022 27.0708 30.0192 25.4701 29.5924L9.55929 25.3495C7.95851 24.9227 6.66079 23.2333 6.66058 21.5765V5.68396C6.66058 5.11996 7.10262 4.78035 7.64758 4.92567L12.0221 6.0922ZM12.0872 12.7473C10.9975 12.4569 10.1141 13.1362 10.1141 14.2641V19.8803C10.1141 21.0081 10.9975 22.1586 12.0872 22.4494L22.9413 25.3438C24.0312 25.6345 24.9153 24.9553 24.9153 23.8273V18.2111C24.9153 17.0831 24.0312 15.9323 22.9413 15.6417L12.0872 12.7473Z" fill="white"/>
<path d="M12.0221 6.0922C12.3686 6.18463 12.6901 6.45887 12.8685 6.814L14.0612 9.18869L25.4701 12.2311C27.0709 12.658 28.3686 14.3473 28.3688 16.0041V27.3654C28.3686 29.022 27.0708 30.0192 25.4701 29.5924L9.55929 25.3495C7.95851 24.9227 6.66079 23.2333 6.66058 21.5765V5.68396C6.66058 5.11996 7.10262 4.78035 7.64758 4.92567L12.0221 6.0922ZM12.0872 12.7473C10.9975 12.4569 10.1141 13.1362 10.1141 14.2641V19.8803C10.1141 21.0081 10.9975 22.1586 12.0872 22.4494L22.9413 25.3438C24.0312 25.6345 24.9153 24.9553 24.9153 23.8273V18.2111C24.9153 17.0831 24.0312 15.9323 22.9413 15.6417L12.0872 12.7473Z" stroke="white"/>
<path d="M14.7015 30.9153C14.8978 30.2063 15.6322 29.7908 16.3412 29.9872L29.2228 33.5542C30.241 33.8362 31.2482 33.0705 31.2483 32.014V21.3141C31.2483 20.5783 31.8447 19.9819 32.5804 19.9819C33.316 19.982 33.9125 20.5784 33.9125 21.3141V32.014C33.9124 34.8315 31.2272 36.8742 28.5118 36.1222L15.6297 32.5545C14.9208 32.358 14.5052 31.6243 14.7015 30.9153Z" fill="white"/>
<path d="M52.4057 30V12H59.3177C61.5577 12 63.3177 12.512 64.5977 13.536C65.8777 14.544 66.5177 15.984 66.5177 17.856C66.5177 19.728 65.8777 21.176 64.5977 22.2C63.3177 23.208 61.5577 23.712 59.3177 23.712H56.5817V30H52.4057ZM56.5817 20.184H59.3177C60.1657 20.184 60.8537 19.992 61.3817 19.608C61.9257 19.224 62.1977 18.64 62.1977 17.856C62.1977 17.056 61.9257 16.472 61.3817 16.104C60.8537 15.72 60.1657 15.528 59.3177 15.528H56.5817V20.184ZM69.2008 30.36C68.7368 30.36 68.2568 30.328 67.7608 30.264C67.2808 30.2 66.7928 30.112 66.2968 30V26.448C66.6168 26.544 66.9528 26.624 67.3048 26.688C67.6728 26.736 68.0328 26.76 68.3848 26.76C69.3288 26.76 70.0248 26.504 70.4728 25.992C70.9208 25.48 71.1448 24.664 71.1448 23.544V12H75.3928V23.568C75.3928 25.792 74.8568 27.48 73.7848 28.632C72.7128 29.784 71.1848 30.36 69.2008 30.36ZM83.4658 30V15.744H78.3778V12H92.7778V15.744H87.6898V30H83.4658ZM95.7454 30V12H107.985V15.624H99.9214V19.008H107.481V22.488H99.9214V26.376H107.985V30H95.7454ZM111.653 30V12H123.893V15.624H115.829V19.008H123.389V22.488H115.829V26.376H123.893V30H111.653Z" fill="#4F4F4F"/>
<defs>
<linearGradient id="paint0_linear_2_175" x1="0" y1="0" x2="40.6297" y2="40.6297" gradientUnits="userSpaceOnUse">
<stop stop-color="#155DFC"/>
<stop offset="1" stop-color="#9810FA"/>
</linearGradient>
</defs>
</svg>
