<svg width="91" height="24" viewBox="0 0 91 24" fill="none" xmlns="http://www.w3.org/2000/svg">
<path d="M79.3878 5.60618L77.4458 17.9525C77.4386 17.9978 77.4412 18.0442 77.4535 18.0884C77.4658 18.1326 77.4875 18.1736 77.5171 18.2084C77.5468 18.2432 77.5835 18.271 77.6249 18.2899C77.6663 18.3088 77.7112 18.3184 77.7566 18.3179H80.0548C80.1359 18.3186 80.2146 18.2899 80.2766 18.2369C80.3385 18.184 80.3797 18.1104 80.3927 18.0294L82.3347 5.68308C82.3419 5.63774 82.3393 5.59135 82.327 5.54714C82.3147 5.50294 82.293 5.46199 82.2634 5.42718C82.2337 5.39237 82.197 5.36453 82.1556 5.34561C82.1142 5.3267 82.0693 5.31717 82.0239 5.31769H79.7257C79.6443 5.31607 79.5652 5.34444 79.503 5.39753C79.4409 5.45062 79.3999 5.52478 79.3878 5.60618ZM76.9337 9.20912H74.7531C74.6721 9.20832 74.5935 9.23694 74.5316 9.28979C74.4697 9.34264 74.4286 9.4162 74.4157 9.49712L74.3436 9.95165C74.3436 9.95165 72.6499 8.09337 69.6513 9.3492C67.931 10.0682 67.1052 11.5538 66.7538 12.6421C66.7538 12.6421 65.6386 15.9497 68.1609 17.7703C68.1609 17.7703 70.4998 19.5213 73.1335 17.6625L73.088 17.9525C73.0775 18.0206 73.0893 18.0903 73.1216 18.151C73.154 18.2117 73.2051 18.26 73.2671 18.2885C73.3082 18.3081 73.3533 18.3179 73.3988 18.3179H75.5808C75.6622 18.3195 75.7413 18.2911 75.8035 18.238C75.8656 18.1849 75.9066 18.1108 75.9187 18.0294L77.2459 9.57451C77.2534 9.52922 77.2507 9.48283 77.2383 9.4387C77.2258 9.39456 77.2038 9.35379 77.1738 9.31933C77.1442 9.28421 77.1074 9.25609 77.0659 9.23696C77.0244 9.21784 76.9793 9.20865 76.9337 9.20912ZM73.725 13.8818C73.6399 14.4725 73.3448 15.0115 72.8949 15.3977C72.4431 15.7853 71.868 15.9945 71.2757 15.9869C71.0435 15.9897 70.8122 15.9556 70.5903 15.886C69.6489 15.5823 69.1116 14.6743 69.266 13.6898C69.3518 13.0993 69.6472 12.5608 70.0971 12.1748C70.5485 11.787 71.1231 11.5771 71.7153 11.5837C71.9476 11.5812 72.1788 11.6156 72.4007 11.6855C73.3479 11.9872 73.8828 12.8968 73.7274 13.8823H73.725V13.8818ZM62.0809 14.1154C63.2634 14.1154 64.4072 13.6903 65.3056 12.9174C66.2021 12.1471 66.7957 11.0768 66.9784 9.9012C67.3603 7.45565 65.4585 5.32112 62.7624 5.32112H58.4191C58.338 5.32034 58.2594 5.34903 58.1975 5.40197C58.1355 5.45492 58.0945 5.5286 58.0817 5.60961L56.1393 17.9559C56.1287 18.024 56.1405 18.0937 56.1729 18.1544C56.2052 18.2151 56.2563 18.2634 56.3183 18.2919C56.36 18.3115 56.4045 18.3213 56.45 18.3213H58.7497C58.8308 18.3221 58.9094 18.2934 58.9713 18.2404C59.0332 18.1875 59.0743 18.1138 59.0871 18.0328L59.6573 14.4073C59.6693 14.3258 59.7102 14.2516 59.7723 14.1984C59.8345 14.1452 59.9137 14.1167 59.9951 14.1183L62.0809 14.1154ZM64.0045 9.79002C63.8626 10.6942 63.1666 11.3598 61.835 11.3598H60.1326L60.6496 8.07182H62.3214C63.6981 8.07426 64.1463 8.88977 64.0045 9.79247V9.79002Z" fill="#0070E0"/>
<path d="M53.5191 9.41869L50.8888 13.8783L49.5539 9.45151C49.533 9.38087 49.4899 9.31901 49.4313 9.27528C49.3726 9.23154 49.3014 9.2083 49.2286 9.20906H46.8548C46.7934 9.20822 46.7338 9.22987 46.6869 9.27001C46.64 9.31015 46.6091 9.36609 46.5997 9.42751C46.594 9.46823 46.5981 9.50977 46.6118 9.54849L49.004 17.0051L46.8403 20.5189C46.8219 20.5479 46.8096 20.5803 46.804 20.6142C46.7985 20.6481 46.7998 20.6828 46.808 20.7162C46.8161 20.7496 46.8309 20.7809 46.8515 20.8083C46.872 20.8357 46.8979 20.8586 46.9274 20.8755C46.967 20.8985 47.012 20.9104 47.0576 20.9098H49.6144C49.6873 20.9101 49.7591 20.8913 49.8228 20.8552C49.8865 20.8192 49.9399 20.7671 49.9779 20.7041L56.6596 9.60188C56.6838 9.56322 56.6971 9.51859 56.698 9.47283C56.699 9.42707 56.6875 9.38193 56.6649 9.34229C56.6424 9.30251 56.6097 9.26958 56.5702 9.24692C56.5308 9.22427 56.4861 9.21272 56.4408 9.21347H53.8851C53.8117 9.21279 53.7395 9.23133 53.6754 9.2673C53.6112 9.30326 53.5574 9.35542 53.5191 9.41869ZM45.5092 9.20906H43.3266C43.2455 9.20828 43.1667 9.23702 43.1047 9.29006C43.0427 9.34309 43.0015 9.4169 42.9888 9.49804L42.9181 9.95208C42.9181 9.95208 41.223 8.0938 38.2244 9.34963C36.5045 10.0687 35.6783 11.5542 35.3283 12.6425C35.3283 12.6425 34.2121 15.9501 36.734 17.7707C36.734 17.7707 39.0734 19.5217 41.707 17.6629L41.6615 17.9529C41.6508 18.021 41.6626 18.0908 41.6949 18.1515C41.7273 18.2123 41.7785 18.2605 41.8406 18.2889C41.8818 18.3085 41.9268 18.3183 41.9723 18.3183H44.1544C44.2354 18.3189 44.3139 18.2901 44.3758 18.2372C44.4377 18.1843 44.4788 18.1107 44.4917 18.0298L45.8195 9.57494C45.8303 9.50673 45.8186 9.43682 45.7862 9.376C45.7539 9.31518 45.7026 9.26684 45.6404 9.23845C45.5991 9.21921 45.5547 9.20919 45.5092 9.20906ZM42.3 13.8827C42.2141 14.4727 41.9188 15.0109 41.4694 15.3967C41.0178 15.7842 40.4433 15.9939 39.8512 15.9873C39.6193 15.99 39.3884 15.9559 39.1668 15.8864C38.2258 15.5828 37.689 14.6747 37.8434 13.6897C37.9294 13.098 38.226 12.5584 38.6774 12.1723C39.1306 11.7846 39.707 11.5756 40.3004 11.5841C40.5328 11.5816 40.7646 11.6159 40.9863 11.686C41.9239 11.9877 42.4578 12.8967 42.3029 13.8827H42.3ZM30.6563 14.1158C31.8369 14.1152 32.9787 13.6901 33.8781 12.9163C34.7738 12.146 35.3667 11.0762 35.5491 9.90114C35.9314 7.45608 34.0292 5.32155 31.334 5.32155H26.9902C26.9092 5.32073 26.8305 5.34933 26.7685 5.40217C26.7065 5.45501 26.6653 5.52859 26.6523 5.60955L24.7162 17.9524C24.7054 18.0206 24.717 18.0905 24.7494 18.1513C24.7818 18.2122 24.833 18.2605 24.8953 18.2889C24.9364 18.308 24.9814 18.3183 25.0269 18.3183H27.3252C27.4064 18.3191 27.4851 18.2903 27.5471 18.2373C27.6091 18.1843 27.6503 18.1104 27.663 18.0293L28.2323 14.4038C28.2444 14.3224 28.2853 14.2483 28.3475 14.1952C28.4097 14.1421 28.4888 14.1137 28.5701 14.1153L30.6563 14.1158ZM32.5799 9.78996C32.4381 10.6941 31.7425 11.3598 30.4109 11.3598H28.7086L29.2245 8.07175H30.8964C32.2735 8.0742 32.7213 8.8902 32.5799 9.79241V9.78996Z" fill="#003087"/>
<path d="M15.7987 5.95582C15.8505 3.22961 13.6282 1.13818 10.5725 1.13818H4.25182C4.10453 1.13811 3.96206 1.19127 3.85006 1.28807C3.73807 1.38487 3.66392 1.51896 3.64096 1.66618L1.10845 17.6791C1.09712 17.7516 1.10147 17.8258 1.12119 17.8965C1.14091 17.9672 1.17554 18.0328 1.22269 18.0886C1.26985 18.1445 1.3284 18.1893 1.39433 18.2201C1.46026 18.2509 1.53199 18.2668 1.6046 18.2668H5.34915L4.76394 21.9746C4.75261 22.0472 4.75696 22.1213 4.77668 22.192C4.7964 22.2627 4.83103 22.3283 4.87818 22.3841C4.92533 22.44 4.98389 22.4849 5.04982 22.5156C5.11575 22.5464 5.18748 22.5623 5.26008 22.5623H8.31052C8.45767 22.5623 8.58885 22.509 8.70114 22.4125C8.81247 22.3155 8.83087 22.1818 8.8541 22.0343L9.74958 16.7034C9.77233 16.5565 9.84639 16.3654 9.9582 16.2685C10.07 16.1715 10.1678 16.1186 10.3154 16.1186H12.1819C15.1747 16.1186 17.7135 13.9659 18.1777 10.9723C18.5064 8.84757 17.6061 6.91435 15.7987 5.95582Z" fill="#001C64"/>
<path d="M6.15944 12.3614L5.22669 18.3457L4.641 22.0995C4.62974 22.1721 4.63415 22.2462 4.65394 22.3169C4.67372 22.3876 4.70841 22.4531 4.75561 22.5089C4.8028 22.5647 4.86139 22.6095 4.92734 22.6402C4.99329 22.6709 5.06503 22.6868 5.13763 22.6868H8.36619C8.51334 22.6867 8.65564 22.6335 8.76745 22.5367C8.87926 22.4399 8.95325 22.3058 8.97608 22.1588L9.82703 16.7029C9.84997 16.5558 9.92405 16.4218 10.0359 16.325C10.1478 16.2282 10.2902 16.175 10.4374 16.1749H12.3378C15.3306 16.1749 17.8694 13.9659 18.3341 10.9723C18.6632 8.84757 17.6061 6.91385 15.7987 5.95532C15.7938 6.18161 15.7745 6.4074 15.7401 6.63124C15.2759 9.62389 12.7361 11.8334 9.74426 11.8334H6.76982C6.62257 11.8335 6.4802 11.8868 6.36832 11.9837C6.25643 12.0806 6.18237 12.2142 6.15944 12.3614Z" fill="#0070E0"/>
<path d="M5.22621 18.3457H1.47004C1.39745 18.3457 1.32573 18.3298 1.25982 18.299C1.19391 18.2682 1.13538 18.2233 1.08826 18.1675C1.04115 18.1116 1.00657 18.0461 0.986904 17.9754C0.967243 17.9047 0.96297 17.8305 0.974379 17.7579L3.50689 1.50749C3.52983 1.36035 3.60391 1.22633 3.71581 1.12954C3.8277 1.03275 3.97006 0.979539 4.11727 0.979492H10.5725C13.6282 0.979492 15.8505 3.22961 15.7987 5.95533C15.0382 5.55174 14.1447 5.32104 13.166 5.32104H7.78437C7.63708 5.32097 7.49461 5.37413 7.38261 5.47093C7.27062 5.56773 7.19647 5.70182 7.17351 5.84904L6.15993 12.3614L5.22572 18.3457H5.22621Z" fill="#003087"/>
</svg>
