<svg width="58" height="24" viewBox="0 0 58 24" fill="none" xmlns="http://www.w3.org/2000/svg">
<path fill-rule="evenodd" clip-rule="evenodd" d="M57.5269 12.4005C57.5269 8.29907 55.5454 5.06274 51.7582 5.06274C47.955 5.06274 45.654 8.29907 45.654 12.3685C45.654 17.1909 48.3705 19.6262 52.2696 19.6262C54.1712 19.6262 55.6093 19.1936 56.696 18.5848V15.3805C55.6093 15.9252 54.3629 16.2617 52.7809 16.2617C51.2309 16.2617 49.8566 15.717 49.6809 13.8264H57.4949C57.4949 13.6182 57.5269 12.7851 57.5269 12.4005ZM49.6329 10.8785C49.6329 9.06809 50.7355 8.31509 51.7422 8.31509C52.717 8.31509 53.7557 9.06809 53.7557 10.8785H49.6329Z" fill="#635BFF"/>
<path fill-rule="evenodd" clip-rule="evenodd" d="M39.486 5.06274C37.92 5.06274 36.9133 5.79973 36.354 6.31241L36.1463 5.31909H32.6307V24L36.6257 23.1509L36.6416 18.6168C37.2169 19.0334 38.0638 19.6262 39.4701 19.6262C42.3304 19.6262 44.9351 17.3191 44.9351 12.2403C44.9192 7.59412 42.2825 5.06274 39.486 5.06274ZM38.5273 16.1015C37.5845 16.1015 37.0252 15.765 36.6416 15.3485L36.6257 9.40454C37.0411 8.93992 37.6164 8.61949 38.5273 8.61949C39.9814 8.61949 40.9881 10.2537 40.9881 12.3525C40.9881 14.4993 39.9974 16.1015 38.5273 16.1015Z" fill="#635BFF"/>
<path fill-rule="evenodd" clip-rule="evenodd" d="M27.1335 4.1175L31.1444 3.25234V0L27.1335 0.849134V4.1175Z" fill="#635BFF"/>
<path d="M31.1444 5.33496H27.1335V19.3537H31.1444V5.33496Z" fill="#635BFF"/>
<path fill-rule="evenodd" clip-rule="evenodd" d="M22.8352 6.52062L22.5796 5.33504H19.1279V19.3538H23.1229V9.85307C24.0657 8.61942 25.6636 8.84372 26.159 9.01996V5.33504C25.6477 5.14278 23.778 4.79031 22.8352 6.52062Z" fill="#635BFF"/>
<path fill-rule="evenodd" clip-rule="evenodd" d="M14.8451 1.8584L10.946 2.69151L10.9301 15.5246C10.9301 17.8958 12.7038 19.6421 15.0688 19.6421C16.3791 19.6421 17.3379 19.4018 17.8653 19.1134V15.8611C17.3539 16.0694 14.8291 16.8064 14.8291 14.4352V8.7476H17.8653V5.33504H14.8291L14.8451 1.8584Z" fill="#635BFF"/>
<path fill-rule="evenodd" clip-rule="evenodd" d="M4.04287 9.40454C4.04287 8.77971 4.55423 8.53939 5.40115 8.53939C6.61561 8.53939 8.14967 8.90788 9.36413 9.56475V5.79973C8.03781 5.27102 6.72747 5.06274 5.40115 5.06274C2.15727 5.06274 0 6.76101 0 9.5968C0 14.0187 6.0723 13.3138 6.0723 15.2203C6.0723 15.9573 5.43311 16.1976 4.53825 16.1976C3.21193 16.1976 1.51807 15.6529 0.175777 14.9159V18.729C1.66189 19.3698 3.16399 19.6422 4.53825 19.6422C7.86203 19.6422 10.1471 17.992 10.1471 15.1242C10.1312 10.3498 4.04287 11.1989 4.04287 9.40454Z" fill="#635BFF"/>
</svg>
