<svg width="41" height="41" viewBox="0 0 41 41" fill="none" xmlns="http://www.w3.org/2000/svg">
<path d="M0 7.7263C0 3.45918 3.45918 0 7.7263 0H32.9034C37.1705 0 40.6297 3.45918 40.6297 7.7263V32.9034C40.6297 37.1705 37.1705 40.6297 32.9034 40.6297H7.7263C3.45918 40.6297 0 37.1705 0 32.9034V7.7263Z" fill="url(#paint0_linear_1_2183)"/>
<path d="M12.0221 6.0922C12.3686 6.18463 12.6901 6.45887 12.8685 6.814L14.0612 9.18869L25.4701 12.2311C27.0709 12.658 28.3686 14.3473 28.3688 16.0041V27.3654C28.3686 29.022 27.0708 30.0192 25.4701 29.5924L9.55929 25.3495C7.95851 24.9227 6.66079 23.2333 6.66058 21.5765V5.68396C6.66058 5.11996 7.10262 4.78035 7.64758 4.92567L12.0221 6.0922ZM12.0872 12.7473C10.9975 12.4569 10.1141 13.1362 10.1141 14.2641V19.8803C10.1141 21.0081 10.9975 22.1586 12.0872 22.4494L22.9413 25.3438C24.0312 25.6345 24.9153 24.9553 24.9153 23.8273V18.2111C24.9153 17.0831 24.0312 15.9323 22.9413 15.6417L12.0872 12.7473Z" fill="white"/>
<path d="M12.0221 6.0922C12.3686 6.18463 12.6901 6.45887 12.8685 6.814L14.0612 9.18869L25.4701 12.2311C27.0709 12.658 28.3686 14.3473 28.3688 16.0041V27.3654C28.3686 29.022 27.0708 30.0192 25.4701 29.5924L9.55929 25.3495C7.95851 24.9227 6.66079 23.2333 6.66058 21.5765V5.68396C6.66058 5.11996 7.10262 4.78035 7.64758 4.92567L12.0221 6.0922ZM12.0872 12.7473C10.9975 12.4569 10.1141 13.1362 10.1141 14.2641V19.8803C10.1141 21.0081 10.9975 22.1586 12.0872 22.4494L22.9413 25.3438C24.0312 25.6345 24.9153 24.9553 24.9153 23.8273V18.2111C24.9153 17.0831 24.0312 15.9323 22.9413 15.6417L12.0872 12.7473Z" stroke="white"/>
<path d="M14.7015 30.9153C14.8978 30.2063 15.6322 29.7908 16.3412 29.9872L29.2228 33.5542C30.241 33.8362 31.2482 33.0705 31.2483 32.014V21.3141C31.2483 20.5783 31.8447 19.9819 32.5804 19.9819C33.316 19.982 33.9125 20.5784 33.9125 21.3141V32.014C33.9124 34.8315 31.2272 36.8742 28.5118 36.1222L15.6297 32.5545C14.9208 32.358 14.5052 31.6243 14.7015 30.9153Z" fill="white"/>
<defs>
<linearGradient id="paint0_linear_1_2183" x1="0" y1="0" x2="40.6297" y2="40.6297" gradientUnits="userSpaceOnUse">
<stop stop-color="#155DFC"/>
<stop offset="1" stop-color="#9810FA"/>
</linearGradient>
</defs>
</svg>
