<svg width="24" height="24" viewBox="0 0 24 24" fill="none" xmlns="http://www.w3.org/2000/svg">
<path d="M9.99999 2.3999C9.99999 1.84762 9.55228 1.3999 8.99999 1.3999C8.44771 1.3999 7.99999 1.84762 7.99999 2.3999H8.99999H9.99999ZM7.99999 21.5999C7.99999 22.1522 8.44771 22.5999 8.99999 22.5999C9.55228 22.5999 9.99999 22.1522 9.99999 21.5999H8.99999H7.99999ZM5.99999 2.3999V3.3999H18V2.3999V1.3999H5.99999V2.3999ZM21.6 5.9999H20.6V17.9999H21.6H22.6V5.9999H21.6ZM18 21.5999V20.5999H5.99999V21.5999V22.5999H18V21.5999ZM2.39999 17.9999H3.39999V5.9999H2.39999H1.39999V17.9999H2.39999ZM5.99999 21.5999V20.5999C4.56405 20.5999 3.39999 19.4358 3.39999 17.9999H2.39999H1.39999C1.39999 20.5404 3.45948 22.5999 5.99999 22.5999V21.5999ZM21.6 17.9999H20.6C20.6 19.4358 19.4359 20.5999 18 20.5999V21.5999V22.5999C20.5405 22.5999 22.6 20.5404 22.6 17.9999H21.6ZM18 2.3999V3.3999C19.4359 3.3999 20.6 4.56396 20.6 5.9999H21.6H22.6C22.6 3.45939 20.5405 1.3999 18 1.3999V2.3999ZM5.99999 2.3999V1.3999C3.45948 1.3999 1.39999 3.45939 1.39999 5.9999H2.39999H3.39999C3.39999 4.56396 4.56405 3.3999 5.99999 3.3999V2.3999ZM8.99999 2.3999H7.99999V21.5999H8.99999H9.99999V2.3999H8.99999ZM2.99999 8.9999V9.9999H21V8.9999V7.9999H2.99999V8.9999Z" fill="#667f99"/>
</svg>
