<svg width="56" height="56" viewBox="0 0 56 56" fill="none" xmlns="http://www.w3.org/2000/svg">
<path d="M28 4.66675C23.3851 4.66675 18.8738 6.03522 15.0367 8.59912C11.1995 11.163 8.20886 14.8072 6.44281 19.0708C4.67677 23.3344 4.21469 28.026 5.11501 32.5522C6.01533 37.0784 8.23762 41.236 11.5008 44.4992C14.7641 47.7625 18.9217 49.9847 23.4479 50.8851C27.9741 51.7854 32.6657 51.3233 36.9293 49.5573C41.1929 47.7912 44.837 44.8005 47.4009 40.9634C49.9648 37.1262 51.3333 32.615 51.3333 28.0001C51.3265 21.8138 48.866 15.8828 44.4916 11.5084C40.1173 7.13405 34.1863 4.67354 28 4.66675V4.66675ZM28 39.6667C27.5385 39.6667 27.0874 39.5299 26.7037 39.2735C26.32 39.0171 26.0209 38.6527 25.8443 38.2263C25.6677 37.8 25.6215 37.3308 25.7115 36.8782C25.8015 36.4256 26.0238 36.0098 26.3501 35.6835C26.6764 35.3572 27.0922 35.1349 27.5448 35.0449C27.9974 34.9549 28.4666 35.0011 28.8929 35.1777C29.3193 35.3543 29.6837 35.6534 29.9401 36.0371C30.1965 36.4208 30.3333 36.8719 30.3333 37.3334C30.3333 37.9522 30.0875 38.5457 29.6499 38.9833C29.2123 39.4209 28.6188 39.6667 28 39.6667ZM30.3333 30.3334C30.3333 30.9522 30.0875 31.5457 29.6499 31.9833C29.2123 32.4209 28.6188 32.6667 28 32.6667C27.3812 32.6667 26.7877 32.4209 26.3501 31.9833C25.9125 31.5457 25.6667 30.9522 25.6667 30.3334V18.6667C25.6667 18.0479 25.9125 17.4544 26.3501 17.0168C26.7877 16.5792 27.3812 16.3334 28 16.3334C28.6188 16.3334 29.2123 16.5792 29.6499 17.0168C30.0875 17.4544 30.3333 18.0479 30.3333 18.6667V30.3334Z" fill="#DD4D2D"/>
</svg>
