<svg width="24" height="24" viewBox="0 0 24 24" fill="none" xmlns="http://www.w3.org/2000/svg">
<path d="M19.5789 10.4843V7.4422C19.5789 6.88991 19.1312 6.4422 18.5789 6.4422H11.9089C11.6437 6.4422 11.3894 6.33684 11.2018 6.1493L9.76657 4.71404C9.57903 4.5265 9.32468 4.42114 9.05946 4.42114H3.39999C2.84771 4.42114 2.39999 4.86886 2.39999 5.42114V18.579C2.39999 19.1313 2.84771 19.579 3.39999 19.579H4.57616C5.04859 19.579 5.43157 19.1961 5.43157 18.7236C5.43157 18.6211 5.45002 18.5193 5.48604 18.4233L8.21982 11.1332C8.36619 10.7429 8.73931 10.4843 9.15615 10.4843H20.2126C20.8951 10.4843 21.3771 11.153 21.1612 11.8005L18.7963 18.8953C18.6602 19.3036 18.2781 19.579 17.8477 19.579H4.42105" stroke="#A9B8C6" stroke-width="2" stroke-linecap="round" stroke-linejoin="round"/>
</svg>
