<svg width="24" height="24" viewBox="0 0 24 24" fill="none" xmlns="http://www.w3.org/2000/svg">
<path d="M19.579 10.4842V7.44207C19.579 6.88979 19.1313 6.44207 18.579 6.44207H11.909C11.6438 6.44207 11.3894 6.33672 11.2019 6.14918L9.7666 4.71391C9.57906 4.52638 9.32471 4.42102 9.05949 4.42102H3.40002C2.84774 4.42102 2.40002 4.86874 2.40002 5.42102V18.5789C2.40002 19.1312 2.84774 19.5789 3.40002 19.5789H4.57619C5.04862 19.5789 5.4316 19.1959 5.4316 18.7235C5.4316 18.6209 5.45005 18.5192 5.48607 18.4232L8.21985 11.1331C8.36622 10.7428 8.73934 10.4842 9.15618 10.4842H20.2126C20.8952 10.4842 21.3771 11.1529 21.1613 11.8004L18.7964 18.8951C18.6603 19.3035 18.2781 19.5789 17.8477 19.5789H4.42108" stroke="url(#paint0_linear_67_1445)" stroke-width="2" stroke-linecap="round" stroke-linejoin="round"/>
<defs>
<linearGradient id="paint0_linear_67_1445" x1="2.40002" y1="4.42102" x2="17.1441" y2="23.0968" gradientUnits="userSpaceOnUse">
<stop stop-color="#155DFC"/>
<stop offset="1" stop-color="#9810FA"/>
</linearGradient>
</defs>
</svg>
