<svg width="24" height="24" viewBox="0 0 24 24" fill="none" xmlns="http://www.w3.org/2000/svg">
<path d="M19 20H18V16.667C17.9989 16.0181 17.7885 15.3868 17.4 14.867L15.25 12L17.4 9.134C17.7882 8.61404 17.9986 7.98288 18 7.334V4H19C19.2652 4 19.5196 3.89464 19.7071 3.70711C19.8946 3.51957 20 3.26522 20 3C20 2.73478 19.8946 2.48043 19.7071 2.29289C19.5196 2.10536 19.2652 2 19 2H5C4.73478 2 4.48043 2.10536 4.29289 2.29289C4.10536 2.48043 4 2.73478 4 3C4 3.26522 4.10536 3.51957 4.29289 3.70711C4.48043 3.89464 4.73478 4 5 4H6V7.333C6.00108 7.98194 6.2115 8.61321 6.6 9.133L8.75 12L6.6 14.866C6.21182 15.386 6.00143 16.0171 6 16.666V20H5C4.73478 20 4.48043 20.1054 4.29289 20.2929C4.10536 20.4804 4 20.7348 4 21C4 21.2652 4.10536 21.5196 4.29289 21.7071C4.48043 21.8946 4.73478 22 5 22H19C19.2652 22 19.5196 21.8946 19.7071 21.7071C19.8946 21.5196 20 21.2652 20 21C20 20.7348 19.8946 20.4804 19.7071 20.2929C19.5196 20.1054 19.2652 20 19 20ZM8 20V16.667C8.00078 16.4508 8.07088 16.2405 8.2 16.067L10.35 13.2C10.6086 12.8534 10.7483 12.4325 10.7483 12C10.7483 11.5675 10.6086 11.1466 10.35 10.8L8.2 7.933C8.07056 7.7597 8.00043 7.5493 8 7.333V4H16V7.333C15.9992 7.54924 15.9291 7.75954 15.8 7.933L13.65 10.8C13.3914 11.1466 13.2517 11.5675 13.2517 12C13.2517 12.4325 13.3914 12.8534 13.65 13.2L15.8 16.068C15.9294 16.2413 15.9996 16.4517 16 16.668V20H8Z" fill="#667F99"/>
</svg>
