<svg width="24" height="24" viewBox="0 0 24 24" fill="none" xmlns="http://www.w3.org/2000/svg">
<path d="M13.875 9.98247C14.0556 10.5044 14.6251 10.7811 15.147 10.6005C15.6689 10.4199 15.9456 9.85037 15.765 9.32844L14.82 9.65546L13.875 9.98247ZM13.2 8.43323L13.2439 7.4342C13.2293 7.43356 13.2146 7.43323 13.2 7.43323V8.43323ZM10.8 12.0999V13.0999V12.0999ZM13.2 15.7666V16.7666V15.7666ZM10.8 15.7666L10.7561 16.7656C10.7707 16.7662 10.7853 16.7666 10.8 16.7666V15.7666ZM10.125 14.2173C9.94441 13.6954 9.3749 13.4187 8.85298 13.5993C8.33106 13.7799 8.05437 14.3494 8.23497 14.8714L9.17999 14.5443L10.125 14.2173ZM13 6.5999C13 6.04762 12.5523 5.5999 12 5.5999C11.4477 5.5999 11 6.04762 11 6.5999H12H13ZM11 8.43323C11 8.98552 11.4477 9.43323 12 9.43323C12.5523 9.43323 13 8.98552 13 8.43323H12H11ZM13 15.7666C13 15.2143 12.5523 14.7666 12 14.7666C11.4477 14.7666 11 15.2143 11 15.7666H12H13ZM11 17.5999C11 18.1522 11.4477 18.5999 12 18.5999C12.5523 18.5999 13 18.1522 13 17.5999H12H11ZM14.82 9.65546L15.765 9.32844C15.5813 8.79764 15.2449 8.33203 14.796 7.99338L14.1938 8.79167L13.5915 9.58996C13.72 9.68695 13.8198 9.823 13.875 9.98247L14.82 9.65546ZM14.1938 8.79167L14.796 7.99338C14.3469 7.65456 13.8064 7.45894 13.2439 7.4342L13.2 8.43323L13.1561 9.43227C13.3115 9.4391 13.4632 9.49315 13.5915 9.58996L14.1938 8.79167ZM13.2 8.43323V7.43323H10.8V8.43323V9.43323H13.2V8.43323ZM10.8 8.43323V7.43323C10.0514 7.43323 9.33727 7.73629 8.81364 8.26961L9.5272 8.9702L10.2408 9.67079C10.3923 9.51649 10.5938 9.43323 10.8 9.43323V8.43323ZM9.5272 8.9702L8.81364 8.26961C8.29062 8.80232 7.99999 9.52098 7.99999 10.2666H8.99999H9.99999C9.99999 10.0397 10.0887 9.82572 10.2408 9.67079L9.5272 8.9702ZM8.99999 10.2666H7.99999C7.99999 11.0122 8.29062 11.7308 8.81364 12.2635L9.5272 11.5629L10.2408 10.8623C10.0887 10.7074 9.99999 10.4934 9.99999 10.2666H8.99999ZM9.5272 11.5629L8.81364 12.2635C9.33727 12.7968 10.0514 13.0999 10.8 13.0999V12.0999V11.0999C10.5938 11.0999 10.3923 11.0166 10.2408 10.8623L9.5272 11.5629ZM10.8 12.0999V13.0999H13.2V12.0999V11.0999H10.8V12.0999ZM13.2 12.0999V13.0999C13.4062 13.0999 13.6077 13.1832 13.7592 13.3375L14.4728 12.6369L15.1863 11.9363C14.6627 11.403 13.9486 11.0999 13.2 11.0999V12.0999ZM14.4728 12.6369L13.7592 13.3375C13.9113 13.4924 14 13.7064 14 13.9332H15H16C16 13.1876 15.7094 12.469 15.1863 11.9363L14.4728 12.6369ZM15 13.9332H14C14 14.1601 13.9113 14.3741 13.7592 14.529L14.4728 15.2296L15.1863 15.9302C15.7094 15.3975 16 14.6788 16 13.9332H15ZM14.4728 15.2296L13.7592 14.529C13.6077 14.6833 13.4062 14.7666 13.2 14.7666V15.7666V16.7666C13.9486 16.7666 14.6627 16.4635 15.1863 15.9302L14.4728 15.2296ZM13.2 15.7666V14.7666H10.8V15.7666V16.7666H13.2V15.7666ZM10.8 15.7666L10.8439 14.7675C10.6885 14.7607 10.5368 14.7067 10.4085 14.6098L9.80623 15.4081L9.20396 16.2064C9.65305 16.5452 10.1936 16.7409 10.7561 16.7656L10.8 15.7666ZM9.80623 15.4081L10.4085 14.6098C10.28 14.5129 10.1802 14.3768 10.125 14.2173L9.17999 14.5443L8.23497 14.8714C8.41865 15.4022 8.75509 15.8678 9.20396 16.2064L9.80623 15.4081ZM12 6.5999H11V8.43323H12H13V6.5999H12ZM12 15.7666H11V17.5999H12H13V15.7666H12ZM21.6 11.9999H20.6C20.6 16.7495 16.7496 20.5999 12 20.5999V21.5999V22.5999C17.8542 22.5999 22.6 17.8541 22.6 11.9999H21.6ZM12 21.5999V20.5999C7.25034 20.5999 3.39999 16.7495 3.39999 11.9999H2.39999H1.39999C1.39999 17.8541 6.14577 22.5999 12 22.5999V21.5999ZM2.39999 11.9999H3.39999C3.39999 7.25025 7.25034 3.3999 12 3.3999V2.3999V1.3999C6.14577 1.3999 1.39999 6.14568 1.39999 11.9999H2.39999ZM12 2.3999V3.3999C16.7496 3.3999 20.6 7.25025 20.6 11.9999H21.6H22.6C22.6 6.14568 17.8542 1.3999 12 1.3999V2.3999Z" fill="#A9B8C6"/>
</svg>
