<svg width="24" height="24" viewBox="0 0 24 24" fill="none" xmlns="http://www.w3.org/2000/svg">
<path d="M12 11.4737C11.0415 11.4737 10.1046 11.1959 9.30762 10.6754C8.51068 10.1549 7.88953 9.4151 7.52274 8.54955C7.15594 7.68401 7.05997 6.73159 7.24696 5.81273C7.43395 4.89387 7.89551 4.04985 8.57325 3.38739C9.251 2.72493 10.1145 2.27379 11.0546 2.09102C11.9946 1.90825 12.969 2.00205 13.8545 2.36057C14.7401 2.71909 15.4969 3.32623 16.0294 4.1052C16.5619 4.88416 16.8462 5.79999 16.8462 6.73684C16.8447 7.9927 16.3337 9.19673 15.4252 10.0848C14.5167 10.9728 13.2848 11.4723 12 11.4737ZM12 4.10527C11.4675 4.10527 10.947 4.2596 10.5042 4.54877C10.0615 4.83793 9.71641 5.24892 9.51263 5.72978C9.30886 6.21064 9.25554 6.73976 9.35942 7.25024C9.46331 7.76072 9.71973 8.22962 10.0963 8.59765C10.4728 8.96568 10.9525 9.21632 11.4748 9.31786C11.997 9.4194 12.5383 9.36728 13.0303 9.16811C13.5223 8.96893 13.9427 8.63163 14.2386 8.19887C14.5344 7.76611 14.6923 7.25732 14.6923 6.73684C14.6923 6.03891 14.4087 5.36955 13.9037 4.87604C13.3988 4.38252 12.714 4.10527 12 4.10527Z" fill="white"/>
<path d="M17.9231 22H6.07692C5.79131 22 5.51739 21.8891 5.31542 21.6917C5.11346 21.4943 5 21.2265 5 20.9474V17.7895C5.00171 16.3941 5.56957 15.0564 6.57901 14.0697C7.58845 13.083 8.95705 12.528 10.3846 12.5263H13.6154C15.0429 12.528 16.4116 13.083 17.421 14.0697C18.4304 15.0564 18.9983 16.3941 19 17.7895V20.9474C19 21.2265 18.8865 21.4943 18.6846 21.6917C18.4826 21.8891 18.2087 22 17.9231 22ZM7.15385 19.8947H16.8462V17.7895C16.8462 16.9519 16.5058 16.1487 15.8999 15.5565C15.294 14.9643 14.4722 14.6316 13.6154 14.6316H10.3846C9.52776 14.6316 8.706 14.9643 8.10012 15.5565C7.49423 16.1487 7.15385 16.9519 7.15385 17.7895V19.8947Z" fill="white"/>
</svg>
